Coordinates
version=1
nRows=10
nColumns=22
inDegrees=yes

Units are S.I. units (second, meters, Newtons, ...)
If the header above contains a line with 'inDegrees', this indicates whether rotational values are in degrees (yes) or radians (no).

endheader
time	pelvis_tilt	pelvis_list	pelvis_rotation	pelvis_tx	pelvis_ty	pelvis_tz	hip_flexion_r	hip_adduction_r	hip_rotation_r	knee_angle_r	ankle_angle_r	subtalar_angle_r	hip_flexion_l	hip_adduction_l	hip_rotation_l	knee_angle_l	ankle_angle_l	subtalar_angle_l	lumbar_extension	lumbar_bending	lumbar_rotation
      0.01000000	     -2.62642622	     -8.46643823	      7.24947934	     -1.08067686	      0.97799483	     -0.27428119	      5.28247719	      7.74207540	     -2.21686100	    -13.31005321	      7.48188680	     -3.38377932	      3.36911505	     -8.63393251	      6.64005212	     -8.32361049	     11.30198145	     -1.81792925	      3.12655723	      7.58765898	     -6.49867880
      0.02000000	     -2.60679245	     -8.24543843	      7.27666524	     -1.08051544	      0.97778715	     -0.27440616	      5.28500687	      7.51075132	     -2.84063713	    -13.54834043	      8.15984469	     -2.27977842	      3.27990662	     -8.39342064	      6.68020146	     -8.27331312	     11.28799132	     -1.87673372	      3.08315368	      7.34245923	     -6.51140739
      0.03000000	     -2.60672181	     -8.04321672	      7.28756117	     -1.08037281	      0.97757561	     -0.27449079	      5.29869869	      7.29881028	     -3.36087917	    -13.75857834	      8.79507137	     -1.17680938	      3.22617247	     -8.17168516	      6.68124203	     -8.24553344	     11.27063973	     -1.90385015	      3.05869334	      7.11540563	     -6.51646706
      0.04000000	     -2.60372996	     -7.88470133	      7.29425383	     -1.08025019	      0.97740539	     -0.27453816	      5.30242042	      7.13454496	     -3.76162578	    -13.92111051	      9.29079525	     -0.30806741	      3.18345627	     -7.99947847	      6.67437622	     -8.23028303	     11.28190288	     -1.93081158	      3.03205217	      6.93602963	     -6.51896966
      0.05000000	     -2.59834699	     -7.73912792	      7.31017317	     -1.08013769	      0.97729173	     -0.27457468	      5.28892753	      6.98799611	     -4.04466262	    -14.02429957	      9.61326057	      0.05433763	      3.14701554	     -7.84120494	      6.69312106	     -8.22392521	     11.29136806	     -1.93952753	      3.00521674	      6.76704703	     -6.52420110
      0.06000000	     -2.59945183	     -7.66735508	      7.31367440	     -1.08003256	      0.97721191	     -0.27456836	      5.29232576	      6.91279458	     -4.22429140	    -14.10263584	      9.85019501	      0.53561457	      3.12753676	     -7.76515754	      6.68401069	     -8.21789305	     11.30527317	     -1.95539785	      2.99498922	      6.68178913	     -6.53167862
      0.07000000	     -2.59990730	     -7.65320857	      7.30735277	     -1.07995820	      0.97717099	     -0.27450840	      5.29828822	      6.90361028	     -4.29419012	    -14.14680569	      9.96207110	      0.82632677	      3.11344305	     -7.75534672	      6.66052999	     -8.20421586	     11.29813642	     -1.96330200	      2.98503621	      6.66085753	     -6.54049946
      0.08000000	     -2.60425031	     -7.65163697	      7.30536738	     -1.07988425	      0.97715246	     -0.27443302	      5.29600421	      6.91175608	     -4.29873112	    -14.14915983	      9.96611627	      0.82751300	      3.11277374	     -7.75887485	      6.65963741	     -8.20412482	     11.29962213	     -1.96361742	      2.98270644	      6.64902953	     -6.54085434
      0.09000000	     -2.60601163	     -7.65108370	      7.30959090	     -1.07980433	      0.97714602	     -0.27437409	      5.29604545	      6.91584359	     -4.30039326	    -14.15411208	      9.97180591	      0.82877833	      3.11011045	     -7.76247348	      6.65706324	     -8.20262037	     11.30221156	     -1.96405657	      2.98032384	      6.63909793	     -6.54277835
      0.10000000	     -2.60627976	     -7.65137935	      7.31646990	     -1.07972128	      0.97714734	     -0.27432257	      5.29754833	      6.91867842	     -4.29586577	    -14.16121248	      9.97496294	      0.82910312	      3.10625522	     -7.76675861	      6.65499563	     -8.20084858	     11.30479930	     -1.96442701	      2.97737368	      6.63089953	     -6.54771485
